<?xml version="1.0" encoding="utf-8"?>
<!-- Generator: Adobe Illustrator 20.1.0, SVG Export Plug-In . SVG Version: 6.00 Build 0)  -->
<svg version="1.1"
	 id="Layer_1" xmlns:cc="http://creativecommons.org/ns#" xmlns:dc="http://purl.org/dc/elements/1.1/" xmlns:inkscape="http://www.inkscape.org/namespaces/inkscape" xmlns:rdf="http://www.w3.org/1999/02/22-rdf-syntax-ns#" xmlns:sodipodi="http://sodipodi.sourceforge.net/DTD/sodipodi-0.dtd" xmlns:svg="http://www.w3.org/2000/svg"
	 xmlns="http://www.w3.org/2000/svg" xmlns:xlink="http://www.w3.org/1999/xlink" x="0px" y="0px" viewBox="0 0 68 68"
	 style="enable-background:new 0 0 68 68;" xml:space="preserve">
<g transform="translate(0,-952.36218)">
	<path d="M34,952.4c-18.8,0-34,15.2-34,34s15.2,34,34,34s34-15.2,34-34S52.8,952.4,34,952.4z M34,956.4c16.6,0,30,13.4,30,30
		c0,7.3-2.6,14.1-7,19.3v-5.3c0-4.4-3-8-7.2-10.3c-4.2-2.4-9.7-3.7-15.8-3.7c-6.1,0-11.7,1.3-15.8,3.7c-4.2,2.4-7.2,6-7.2,10.3v5.3
		c-4.4-5.2-7-11.9-7-19.3C4,969.8,17.4,956.4,34,956.4z M34,960.4c-6.6,0-12,5.4-12,12c0,6.6,5.4,12,12,12c6.6,0,12-5.4,12-12
		C46,965.8,40.6,960.4,34,960.4z M34,964.4c4.4,0,8,3.6,8,8s-3.6,8-8,8s-8-3.6-8-8S29.6,964.4,34,964.4z M34,990.4
		c5.5,0,10.5,1.2,13.9,3.2c3.4,1.9,5.1,4.3,5.1,6.8v9.2c-5.2,4.2-11.8,6.8-19,6.8s-13.8-2.5-19-6.8v-9.2c0-2.5,1.7-4.9,5.1-6.8
		C23.5,991.6,28.5,990.4,34,990.4L34,990.4z"/>
</g>
</svg>
